HIERARCHY
ROOT Hips
{
  OFFSET 5.84602e-005 68.8428 3.50346
  CHANNELS 6 Xposition Yposition Zposition Zrotation Xrotation Yrotation
  JOINT Spine
  {
    OFFSET 0 8.597 -4.6522
    CHANNELS 3 Zrotation Xrotation Yrotation
    JOINT Spine1
    {
      OFFSET 0 7.8454 0.4098
      CHANNELS 3 Zrotation Xrotation Yrotation
      JOINT Spine2
      {
        OFFSET 0 9.7078 -2.1609
        CHANNELS 3 Zrotation Xrotation Yrotation
        JOINT Neck
        {
          OFFSET 0 21.8761 -0.4549
          CHANNELS 3 Zrotation Xrotation Yrotation
          JOINT Head
          {
            OFFSET 0 12.3537 3.3602
            CHANNELS 3 Zrotation Xrotation Yrotation
            End Site
            {
              OFFSET 0.0001 18.9506 0.5657
            }
          }
        }
        JOINT LeftShoulder
        {
          OFFSET 2.2086 21.1115 7.2329
          CHANNELS 3 Zrotation Xrotation Yrotation
          JOINT LeftArm
          {
            OFFSET 13.1193 3.0282 -4.8998
            CHANNELS 3 Zrotation Xrotation Yrotation
            JOINT LeftForeArm
            {
              OFFSET 27.4081 -0.0973053 -0.2375
              CHANNELS 3 Zrotation Xrotation Yrotation
              JOINT LeftHand
              {
                OFFSET 22.8641 0.0662994 -0.1369
                CHANNELS 3 Zrotation Xrotation Yrotation
                JOINT LeftHandIndex1
                {
                  OFFSET 8.8614 0.775009 2.4612
                  CHANNELS 3 Zrotation Xrotation Yrotation
                  JOINT LeftHandIndex2
                  {
                    OFFSET 3.3146 -0.808304 0.5841
                    CHANNELS 3 Zrotation Xrotation Yrotation
                    JOINT LeftHandIndex3
                    {
                      OFFSET 2.2628 -0.552002 0.3989
                      CHANNELS 3 Zrotation Xrotation Yrotation
                      End Site
                      {
                        OFFSET 1.6102 -0.4807 0.2612
                      }
                    }
                  }
                }
                JOINT LeftHandMiddle1
                {
                  OFFSET 8.9937 0.895004 0.2143
                  CHANNELS 3 Zrotation Xrotation Yrotation
                  JOINT LeftHandMiddle2
                  {
                    OFFSET 4.0984 0.0113983 -0.0242
                    CHANNELS 3 Zrotation Xrotation Yrotation
                    JOINT LeftHandMiddle3
                    {
                      OFFSET 2.2716 0.00689697 -0.0138001
                      CHANNELS 3 Zrotation Xrotation Yrotation
                      End Site
                      {
                        OFFSET 2.0404 -0.1441 0.0027
                      }
                    }
                  }
                }
                JOINT LeftHandRing1
                {
                  OFFSET 8.5234 0.597198 -2.0164
                  CHANNELS 3 Zrotation Xrotation Yrotation
                  JOINT LeftHandRing2
                  {
                    OFFSET 3.7188 -0.188293 -0.2328
                    CHANNELS 3 Zrotation Xrotation Yrotation
                    JOINT LeftHandRing3
                    {
                      OFFSET 2.1191 -0.106598 -0.1332
                      CHANNELS 3 Zrotation Xrotation Yrotation
                      End Site
                      {
                        OFFSET 1.8737 -0.2304 -0.0886
                      }
                    }
                  }
                }
                JOINT LeftHandPinky1
                {
                  OFFSET 7.9094 -0.601089 -3.4825
                  CHANNELS 3 Zrotation Xrotation Yrotation
                  JOINT LeftHandPinky2
                  {
                    OFFSET 2.2874 -0.477005 -0.6314
                    CHANNELS 3 Zrotation Xrotation Yrotation
                    JOINT LeftHandPinky3
                    {
                      OFFSET 1.6774 -0.349396 -0.4633
                      CHANNELS 3 Zrotation Xrotation Yrotation
                      End Site
                      {
                        OFFSET 1.4888 -0.4091 -0.3416
                      }
                    }
                  }
                }
                JOINT LeftHandThumb1
                {
                  OFFSET 1.833 -1.3875 1.3896
                  CHANNELS 3 Zrotation Xrotation Yrotation
                  JOINT LeftHandThumb2
                  {
                    OFFSET 3.4129 -1.121 2.5732
                    CHANNELS 3 Zrotation Xrotation Yrotation
                    JOINT LeftHandThumb3
                    {
                      OFFSET 2.2474 -0.804199 1.6192
                      CHANNELS 3 Zrotation Xrotation Yrotation
                      End Site
                      {
                        OFFSET 1.6527 -0.5689 1.1317
                      }
                    }
                  }
                }
              }
            }
          }
        }
        JOINT RightShoulder
        {
          OFFSET -2.2086 21.1115 7.2329
          CHANNELS 3 Zrotation Xrotation Yrotation
          JOINT RightArm
          {
            OFFSET -13.1216 3.0287 -4.9007
            CHANNELS 3 Zrotation Xrotation Yrotation
            JOINT RightForeArm
            {
              OFFSET -27.4081 -0.0973053 -0.2375
              CHANNELS 3 Zrotation Xrotation Yrotation
              JOINT RightHand
              {
                OFFSET -22.8641 0.0664063 -0.1369
                CHANNELS 3 Zrotation Xrotation Yrotation
                JOINT RightHandIndex1
                {
                  OFFSET -8.8614 0.774994 2.4612
                  CHANNELS 3 Zrotation Xrotation Yrotation
                  JOINT RightHandIndex2
                  {
                    OFFSET -3.3146 -0.808304 0.5841
                    CHANNELS 3 Zrotation Xrotation Yrotation
                    JOINT RightHandIndex3
                    {
                      OFFSET -2.2628 -0.552002 0.3989
                      CHANNELS 3 Zrotation Xrotation Yrotation
                      End Site
                      {
                        OFFSET -1.6102 -0.4807 0.2612
                      }
                    }
                  }
                }
                JOINT RightHandMiddle1
                {
                  OFFSET -8.9937 0.894989 0.2143
                  CHANNELS 3 Zrotation Xrotation Yrotation
                  JOINT RightHandMiddle2
                  {
                    OFFSET -4.0984 0.0113983 -0.0242
                    CHANNELS 3 Zrotation Xrotation Yrotation
                    JOINT RightHandMiddle3
                    {
                      OFFSET -2.2716 0.00691223 -0.0138001
                      CHANNELS 3 Zrotation Xrotation Yrotation
                      End Site
                      {
                        OFFSET -2.0404 -0.1441 0.0027
                      }
                    }
                  }
                }
                JOINT RightHandRing1
                {
                  OFFSET -8.5234 0.597198 -2.0164
                  CHANNELS 3 Zrotation Xrotation Yrotation
                  JOINT RightHandRing2
                  {
                    OFFSET -3.7188 -0.188309 -0.2328
                    CHANNELS 3 Zrotation Xrotation Yrotation
                    JOINT RightHandRing3
                    {
                      OFFSET -2.1191 -0.106598 -0.1332
                      CHANNELS 3 Zrotation Xrotation Yrotation
                      End Site
                      {
                        OFFSET -1.8737 -0.2304 -0.0886
                      }
                    }
                  }
                }
                JOINT RightHandPinky1
                {
                  OFFSET -7.9094 -0.601105 -3.4825
                  CHANNELS 3 Zrotation Xrotation Yrotation
                  JOINT RightHandPinky2
                  {
                    OFFSET -2.2874 -0.477005 -0.6314
                    CHANNELS 3 Zrotation Xrotation Yrotation
                    JOINT RightHandPinky3
                    {
                      OFFSET -1.6774 -0.349396 -0.4633
                      CHANNELS 3 Zrotation Xrotation Yrotation
                      End Site
                      {
                        OFFSET -1.4888 -0.4091 -0.3416
                      }
                    }
                  }
                }
                JOINT RightHandThumb1
                {
                  OFFSET -1.833 -1.38751 1.3896
                  CHANNELS 3 Zrotation Xrotation Yrotation
                  JOINT RightHandThumb2
                  {
                    OFFSET -3.41299 -1.12099 2.5732
                    CHANNELS 3 Zrotation Xrotation Yrotation
                    JOINT RightHandThumb3
                    {
                      OFFSET -2.24741 -0.804108 1.6192
                      CHANNELS 3 Zrotation Xrotation Yrotation
                      End Site
                      {
                        OFFSET -1.6527 -0.5689 1.1317
                      }
                    }
                  }
                }
              }
            }
          }
        }
      }
    }
  }
  JOINT RightUpLeg
  {
    OFFSET -9.1966 3.8861 -0.7581
    CHANNELS 3 Zrotation Xrotation Yrotation
    JOINT RightLeg
    {
      OFFSET -0.7359 -41.0265 0
      CHANNELS 3 Zrotation Xrotation Yrotation
      JOINT RightFoot
      {
        OFFSET 0 -40.2855 0
        CHANNELS 3 Zrotation Xrotation Yrotation
        JOINT RightToeBase
        {
          OFFSET 0 -5.6122 11.7359
          CHANNELS 3 Zrotation Xrotation Yrotation
          End Site
          {
            OFFSET 0 0 7.8731
          }
        }
      }
    }
  }
  JOINT LeftUpLeg
  {
    OFFSET 9.1965 3.8864 -0.7581
    CHANNELS 3 Zrotation Xrotation Yrotation
    JOINT LeftLeg
    {
      OFFSET 0.7359 -41.0268 0
      CHANNELS 3 Zrotation Xrotation Yrotation
      JOINT LeftFoot
      {
        OFFSET 0 -40.2855 0
        CHANNELS 3 Zrotation Xrotation Yrotation
        JOINT LeftToeBase
        {
          OFFSET 0 -5.6122 11.7359
          CHANNELS 3 Zrotation Xrotation Yrotation
          End Site
          {
            OFFSET 0 0 7.8731
          }
        }
      }
    }
  }
}
MOTION
Frames:	4
Frame Time:	0.0333333
41.5068 39.8899 18.8102 179.993 59.0055 -30.0017 -0.831687 8.37503 4.08082 -2.30845 16.6668 8.42177 -2.30846 16.6668 8.42177 3.71598e-005 13.9934 1.85451e-006 -0.0996632 -0.159126 -0.00013861 -48.7945 1.10146 -2.07457 -18.8099 54.8575 0.95361 4.64569 35.4707 -6.70412 5.66531 -13.1963 -10.6546 -0 0 9.54166e-015 -3.97569e-016 0 6.36111e-015 -1.19271e-015 -1.98785e-016 3.18055e-015 -0 0 9.54166e-015 -0.0146231 -8.85481e-005 5.24935e-006 -7.95139e-016 9.93923e-016 6.36111e-015 -0 0 9.54166e-015 -0.018723 -0.00117394 5.78521e-005 -3.97569e-016 -3.97569e-016 -0 -0 0 9.54166e-015 -0.0122462 -0.00324234 0.000674114 3.97569e-016 -1.59028e-015 3.18055e-015 -0 0 9.54166e-015 -3.97569e-016 0 6.36111e-015 -1.19271e-015 -1.98785e-016 3.18055e-015 -16.6064 -0.804506 29.4841 85.7853 -29.3809 25.4842 27.1965 27.0985 23.0038 20.5054 -34.2729 -7.11041 -4.41322e-006 3.7017e-007 -6.92752e-007 -3.18055e-015 -3.18055e-015 3.18055e-015 -9.30116e-007 5.42009e-007 -1.27649e-006 -4.41322e-006 3.7017e-007 -6.92752e-007 0.0149922 -8.55485e-005 3.52161e-006 -9.30164e-007 5.41843e-007 -1.27656e-006 -4.41322e-006 3.7017e-007 -6.92752e-007 0.0190086 -0.00119358 -6.14468e-005 -9.30189e-007 5.41801e-007 -1.27657e-006 -4.41322e-006 3.7017e-007 -6.92752e-007 0.0122453 -0.00325022 -0.000679233 -9.30194e-007 5.41877e-007 -1.27652e-006 -4.41322e-006 3.7017e-007 -6.92752e-007 -3.18055e-015 -3.18055e-015 3.18055e-015 -9.30116e-007 5.42009e-007 -1.27649e-006 -83.5539 -40.7405 -73.5257 -126.931 67.5918 153.637 -27.1832 8.69963 4.11265 -1.35995e-006 -5.55422e-007 8.06504e-007 63.3464 -51.0459 64.2381 3.11813 19.8578 -0.0827526 3.80252 -2.10756 0.0699694 8.44936e-007 1.58401e-008 1.30324e-007 
41.5081 39.8905 18.8125 179.993 59.0055 -30.0017 -0.862339 8.47137 4.07774 -2.3786 16.8569 8.42499 -2.3786 16.8569 8.42499 0.000122019 13.9931 -3.98777e-005 -0.0996682 -0.15911 -0.00013899 -47.9252 0.969543 -2.40404 -19.7635 54.8581 0.991724 4.85975 35.4523 -6.9542 5.71994 -13.3946 -10.4335 -2.97799e-007 8.89487e-008 1.42317e-006 -4.25384e-007 5.14948e-007 9.54457e-006 1.49514e-007 1.49515e-007 5.48621e-006 -2.97799e-007 8.89487e-008 1.42317e-006 -0.0146266 -8.83637e-005 8.01138e-006 1.49e-007 1.48812e-007 5.48623e-006 -2.97799e-007 8.89487e-008 1.42317e-006 -0.0187672 -0.00117656 5.66007e-005 1.48905e-007 1.48575e-007 5.48623e-006 -2.97799e-007 8.89487e-008 1.42317e-006 -0.0122647 -0.00324593 0.000692765 1.49236e-007 1.48812e-007 5.48625e-006 -2.97799e-007 8.89487e-008 1.42317e-006 -4.25384e-007 5.14948e-007 9.54457e-006 1.49514e-007 1.49515e-007 5.48621e-006 -16.8164 -1.30956 29.2406 85.8856 -29.3357 25.4719 27.2661 27.1281 23.0944 20.9038 -34.3394 -6.35454 -6.36111e-015 4.77083e-015 1.59028e-015 -1.27222e-014 7.95139e-015 1.59028e-015 -3.18055e-015 7.95139e-015 -0 -6.36111e-015 4.77083e-015 1.59028e-015 0.0149652 -8.92917e-005 4.07321e-006 -6.36111e-015 4.77083e-015 -1.59028e-015 -6.36111e-015 4.77083e-015 1.59028e-015 0.0190361 -0.00119795 -6.28266e-005 -6.36111e-015 0 -6.36111e-015 -6.36111e-015 4.77083e-015 1.59028e-015 0.0122514 -0.00324933 -0.000678584 -3.18055e-015 1.59028e-015 -1.59028e-015 -6.36111e-015 4.77083e-015 1.59028e-015 -1.27222e-014 7.95139e-015 1.59028e-015 -3.18055e-015 7.95139e-015 -0 -83.1821 -40.5231 -73.2483 -126.626 67.5452 153.369 -27.1804 8.70847 4.11174 2.30962e-006 2.08329e-006 4.12883e-006 63.347 -51.0451 64.2385 3.11825 19.8612 -0.082881 3.80156 -2.11095 0.0700642 2.94201e-014 7.95139e-016 9.93923e-016 
41.5094 39.891 18.8149 179.993 59.0055 -30.0017 -0.892931 8.56767 4.07445 -2.44865 17.047 8.42783 -2.44865 17.047 8.42783 0.000167567 13.9932 -6.48267e-005 -0.0996641 -0.159111 -0.000139295 -47.0569 0.832674 -2.73137 -20.7168 54.8583 1.02982 5.07366 35.4331 -7.20411 5.77539 -13.5927 -10.212 -1.27054e-007 1.71381e-007 -4.70866e-009 2.98435e-007 -4.43268e-008 4.23809e-011 -1.27054e-007 1.71381e-007 -4.70869e-009 -1.27054e-007 1.71381e-007 -4.70866e-009 -0.0145926 -8.91054e-005 5.88329e-007 -1.27055e-007 1.71381e-007 -4.68677e-009 -1.27054e-007 1.71381e-007 -4.70866e-009 -0.0187533 -0.00117604 5.6984e-005 -1.27055e-007 1.71382e-007 -4.67932e-009 -1.27054e-007 1.71381e-007 -4.70866e-009 -0.0122918 -0.00325386 0.000685086 -1.27054e-007 1.71382e-007 -4.68666e-009 -1.27054e-007 1.71381e-007 -4.70866e-009 2.98435e-007 -4.43268e-008 4.23809e-011 -1.27054e-007 1.71381e-007 -4.70869e-009 -17.0287 -1.81368 28.9953 85.9859 -29.2906 25.4595 27.3357 27.1576 23.185 21.3035 -34.4017 -5.59766 3.4417e-006 1.69203e-006 -3.20697e-007 -3.08973e-031 1.11319e-014 1.59028e-015 9.2661e-007 -5.45231e-007 1.28229e-006 3.4417e-006 1.69203e-006 -3.20697e-007 0.0149533 -9.03609e-005 -1.87564e-006 9.26656e-007 -5.45064e-007 1.28236e-006 3.4417e-006 1.69203e-006 -3.20697e-007 0.0189581 -0.00118878 -5.94446e-005 9.2668e-007 -5.45022e-007 1.28237e-006 3.4417e-006 1.69203e-006 -3.20697e-007 0.0122731 -0.0032524 -0.00067332 9.26686e-007 -5.45098e-007 1.28232e-006 3.4417e-006 1.69203e-006 -3.20697e-007 -3.08973e-031 1.11319e-014 1.59028e-015 9.2661e-007 -5.45231e-007 1.28229e-006 -82.8129 -40.3046 -72.9735 -126.322 67.498 153.102 -27.1775 8.71724 4.11077 2.2985e-006 2.04349e-006 4.11677e-006 63.3476 -51.0443 64.2388 3.11836 19.8645 -0.0830273 3.80057 -2.11426 0.0701558 1.61314e-006 2.1647e-007 1.52818e-007 
41.5107 39.8915 18.8172 179.993 59.0055 -30.0017 -0.923456 8.66396 4.07089 -2.51857 17.237 8.4303 -2.51857 17.237 8.4303 0.000125989 13.9933 -5.37172e-005 -0.0996641 -0.159123 -0.000139858 -46.1898 0.690927 -3.05644 -21.6698 54.8581 1.06792 5.2874 35.4132 -7.4539 5.83168 -13.7906 -9.99003 -3.97569e-016 -1.98785e-016 -0 -3.97569e-016 0 3.18055e-015 -3.97569e-016 0 -3.18055e-015 -3.97569e-016 -1.98785e-016 -0 -0.0146008 -8.8375e-005 7.87919e-006 -3.97569e-016 0 -6.36111e-015 -3.97569e-016 -1.98785e-016 -0 -0.0187699 -0.00117689 6.38203e-005 -7.95139e-016 0 -6.36111e-015 -3.97569e-016 -1.98785e-016 -0 -0.0122923 -0.00325368 0.000679415 -3.97569e-016 -1.39149e-015 -3.18055e-015 -3.97569e-016 -1.98785e-016 -0 -3.97569e-016 0 3.18055e-015 -3.97569e-016 0 -3.18055e-015 -17.2431 -2.31679 28.7481 86.0861 -29.2455 25.4471 27.4052 27.1874 23.2756 21.7044 -34.4595 -4.83985 -9.24793e-007 5.46796e-007 -1.28516e-006 -9.24793e-007 5.46796e-007 -1.28516e-006 -1.84959e-006 1.09359e-006 -2.57031e-006 -9.24793e-007 5.46796e-007 -1.28516e-006 0.0149828 -9.24361e-005 -1.32714e-006 -1.84967e-006 1.09326e-006 -2.57045e-006 -9.24793e-007 5.46796e-007 -1.28516e-006 0.0190015 -0.00119308 -6.12372e-005 -1.84972e-006 1.09317e-006 -2.57047e-006 -9.24793e-007 5.46796e-007 -1.28516e-006 0.0122687 -0.00324132 -0.000678282 -1.84974e-006 1.09332e-006 -2.57037e-006 -9.24793e-007 5.46796e-007 -1.28516e-006 -9.24793e-007 5.46796e-007 -1.28516e-006 -1.84959e-006 1.09359e-006 -2.57031e-006 -82.4463 -40.0848 -72.7015 -126.02 67.4502 152.836 -27.1746 8.72602 4.10976 -1.36788e-006 -5.47543e-007 7.97517e-007 63.3484 -51.0435 64.2394 3.11849 19.8682 -0.0831639 3.79957 -2.1178 0.0702549 9.22802e-007 2.43013e-007 8.40492e-008 
